%TF.GenerationSoftware,KiCad,Pcbnew,5.1.9+dfsg1-1+deb11u1*%
%TF.CreationDate,2025-02-19T16:02:58-08:00*%
%TF.ProjectId,soic16,736f6963-3136-42e6-9b69-6361645f7063,rev?*%
%TF.SameCoordinates,Original*%
%TF.FileFunction,Copper,L1,Top*%
%TF.FilePolarity,Positive*%
%FSLAX46Y46*%
G04 Gerber Fmt 4.6, Leading zero omitted, Abs format (unit mm)*
G04 Created by KiCad (PCBNEW 5.1.9+dfsg1-1+deb11u1) date 2025-02-19 16:02:58*
%MOMM*%
%LPD*%
G01*
G04 APERTURE LIST*
%TA.AperFunction,ComponentPad*%
%ADD10O,1.600000X1.600000*%
%TD*%
%TA.AperFunction,ComponentPad*%
%ADD11R,1.600000X1.600000*%
%TD*%
%TA.AperFunction,SMDPad,CuDef*%
%ADD12R,0.600000X1.500000*%
%TD*%
%TA.AperFunction,ViaPad*%
%ADD13C,0.800000*%
%TD*%
%TA.AperFunction,Conductor*%
%ADD14C,0.500000*%
%TD*%
%TA.AperFunction,Conductor*%
%ADD15C,0.250000*%
%TD*%
G04 APERTURE END LIST*
D10*
%TO.P,J1,16*%
%TO.N,Net-(C1-Pad2)*%
X137234000Y-88788000D03*
%TO.P,J1,8*%
%TO.N,Net-(C1-Pad1)*%
X129614000Y-106568000D03*
%TO.P,J1,15*%
%TO.N,Net-(J1-Pad15)*%
X137234000Y-91328000D03*
%TO.P,J1,7*%
%TO.N,Net-(J1-Pad7)*%
X129614000Y-104028000D03*
%TO.P,J1,14*%
%TO.N,Net-(J1-Pad14)*%
X137234000Y-93868000D03*
%TO.P,J1,6*%
%TO.N,Net-(J1-Pad6)*%
X129614000Y-101488000D03*
%TO.P,J1,13*%
%TO.N,Net-(J1-Pad13)*%
X137234000Y-96408000D03*
%TO.P,J1,5*%
%TO.N,Net-(J1-Pad5)*%
X129614000Y-98948000D03*
%TO.P,J1,12*%
%TO.N,Net-(J1-Pad12)*%
X137234000Y-98948000D03*
%TO.P,J1,4*%
%TO.N,Net-(J1-Pad4)*%
X129614000Y-96408000D03*
%TO.P,J1,11*%
%TO.N,Net-(J1-Pad11)*%
X137234000Y-101488000D03*
%TO.P,J1,3*%
%TO.N,Net-(J1-Pad3)*%
X129614000Y-93868000D03*
%TO.P,J1,10*%
%TO.N,Net-(J1-Pad10)*%
X137234000Y-104028000D03*
%TO.P,J1,2*%
%TO.N,Net-(J1-Pad2)*%
X129614000Y-91328000D03*
%TO.P,J1,9*%
%TO.N,Net-(J1-Pad9)*%
X137234000Y-106568000D03*
D11*
%TO.P,J1,1*%
%TO.N,Net-(J1-Pad1)*%
X129614000Y-88788000D03*
%TD*%
D12*
%TO.P,J2,16*%
%TO.N,Net-(C1-Pad2)*%
X129032000Y-80010000D03*
%TO.P,J2,15*%
%TO.N,Net-(J1-Pad15)*%
X130302000Y-80010000D03*
%TO.P,J2,14*%
%TO.N,Net-(J1-Pad14)*%
X131572000Y-80010000D03*
%TO.P,J2,13*%
%TO.N,Net-(J1-Pad13)*%
X132842000Y-80010000D03*
%TO.P,J2,12*%
%TO.N,Net-(J1-Pad12)*%
X134112000Y-80010000D03*
%TO.P,J2,11*%
%TO.N,Net-(J1-Pad11)*%
X135382000Y-80010000D03*
%TO.P,J2,10*%
%TO.N,Net-(J1-Pad10)*%
X136652000Y-80010000D03*
%TO.P,J2,9*%
%TO.N,Net-(J1-Pad9)*%
X137922000Y-80010000D03*
%TO.P,J2,8*%
%TO.N,Net-(C1-Pad1)*%
X137922000Y-85410000D03*
%TO.P,J2,7*%
%TO.N,Net-(J1-Pad7)*%
X136652000Y-85410000D03*
%TO.P,J2,6*%
%TO.N,Net-(J1-Pad6)*%
X135382000Y-85410000D03*
%TO.P,J2,5*%
%TO.N,Net-(J1-Pad5)*%
X134112000Y-85410000D03*
%TO.P,J2,4*%
%TO.N,Net-(J1-Pad4)*%
X132842000Y-85410000D03*
%TO.P,J2,3*%
%TO.N,Net-(J1-Pad3)*%
X131572000Y-85410000D03*
%TO.P,J2,2*%
%TO.N,Net-(J1-Pad2)*%
X130302000Y-85410000D03*
%TO.P,J2,1*%
%TO.N,Net-(J1-Pad1)*%
X129032000Y-85410000D03*
%TD*%
%TO.P,C1,2*%
%TO.N,Net-(C1-Pad2)*%
%TA.AperFunction,SMDPad,CuDef*%
G36*
G01*
X133918000Y-107003001D02*
X133918000Y-106102999D01*
G75*
G02*
X134167999Y-105853000I249999J0D01*
G01*
X134818001Y-105853000D01*
G75*
G02*
X135068000Y-106102999I0J-249999D01*
G01*
X135068000Y-107003001D01*
G75*
G02*
X134818001Y-107253000I-249999J0D01*
G01*
X134167999Y-107253000D01*
G75*
G02*
X133918000Y-107003001I0J249999D01*
G01*
G37*
%TD.AperFunction*%
%TO.P,C1,1*%
%TO.N,Net-(C1-Pad1)*%
%TA.AperFunction,SMDPad,CuDef*%
G36*
G01*
X131868000Y-107003001D02*
X131868000Y-106102999D01*
G75*
G02*
X132117999Y-105853000I249999J0D01*
G01*
X132768001Y-105853000D01*
G75*
G02*
X133018000Y-106102999I0J-249999D01*
G01*
X133018000Y-107003001D01*
G75*
G02*
X132768001Y-107253000I-249999J0D01*
G01*
X132117999Y-107253000D01*
G75*
G02*
X131868000Y-107003001I0J249999D01*
G01*
G37*
%TD.AperFunction*%
%TD*%
D13*
%TO.N,Net-(C1-Pad2)*%
X129032000Y-81280000D03*
%TO.N,Net-(J1-Pad15)*%
X129540000Y-83058000D03*
%TO.N,Net-(J1-Pad14)*%
X131064000Y-83058000D03*
%TO.N,Net-(J1-Pad13)*%
X132715000Y-83693000D03*
%TO.N,Net-(J1-Pad12)*%
X133858000Y-83693000D03*
%TO.N,Net-(J1-Pad11)*%
X135382000Y-83058000D03*
%TO.N,Net-(J1-Pad10)*%
X136906000Y-83058000D03*
%TO.N,Net-(J1-Pad9)*%
X137922000Y-81280000D03*
%TD*%
D14*
%TO.N,Net-(C1-Pad2)*%
X134384000Y-104503000D02*
X134384000Y-106553000D01*
X135509000Y-103378000D02*
X134384000Y-104503000D01*
X135509000Y-90551000D02*
X135509000Y-103378000D01*
X137234000Y-88826000D02*
X135509000Y-90551000D01*
X137234000Y-88788000D02*
X137234000Y-88826000D01*
D15*
X129032000Y-79977000D02*
X129032000Y-81280000D01*
%TO.N,Net-(C1-Pad1)*%
X137922000Y-85979000D02*
X137922000Y-85377000D01*
X134366000Y-89535000D02*
X137922000Y-85979000D01*
X134366000Y-101981000D02*
X134366000Y-89535000D01*
X132334000Y-104013000D02*
X134366000Y-101981000D01*
X132334000Y-106553000D02*
X132334000Y-104013000D01*
D14*
X132327662Y-106559338D02*
X132334000Y-106553000D01*
X129622662Y-106559338D02*
X132327662Y-106559338D01*
X129614000Y-106568000D02*
X129622662Y-106559338D01*
D15*
%TO.N,Net-(J1-Pad15)*%
X130302000Y-81661000D02*
X130302000Y-81661000D01*
X130302000Y-82296000D02*
X129540000Y-83058000D01*
X130302000Y-79977000D02*
X130302000Y-82296000D01*
%TO.N,Net-(J1-Pad7)*%
X136652000Y-85852000D02*
X136652000Y-85377000D01*
X133858000Y-88646000D02*
X136652000Y-85852000D01*
X133858000Y-99822000D02*
X133858000Y-88646000D01*
X129652000Y-104028000D02*
X133858000Y-99822000D01*
X129614000Y-104028000D02*
X129652000Y-104028000D01*
%TO.N,Net-(J1-Pad14)*%
X131572000Y-82550000D02*
X131064000Y-83058000D01*
X131572000Y-79977000D02*
X131572000Y-82550000D01*
%TO.N,Net-(J1-Pad6)*%
X135382000Y-86106000D02*
X135382000Y-85377000D01*
X133350000Y-88138000D02*
X135382000Y-86106000D01*
X133350000Y-97752000D02*
X133350000Y-88138000D01*
X129614000Y-101488000D02*
X133350000Y-97752000D01*
%TO.N,Net-(J1-Pad13)*%
X132842000Y-81534000D02*
X132842000Y-81534000D01*
X132842000Y-83566000D02*
X132842000Y-79977000D01*
X132715000Y-83693000D02*
X132842000Y-83566000D01*
%TO.N,Net-(J1-Pad5)*%
X134112000Y-86423500D02*
X134112000Y-85377000D01*
X132842000Y-87693500D02*
X134112000Y-86423500D01*
X132842000Y-95739000D02*
X132842000Y-87693500D01*
X129633000Y-98948000D02*
X132842000Y-95739000D01*
X129614000Y-98948000D02*
X129633000Y-98948000D01*
%TO.N,Net-(J1-Pad12)*%
X134112000Y-82804000D02*
X134112000Y-82804000D01*
X134112000Y-83439000D02*
X134112000Y-79977000D01*
X133858000Y-83693000D02*
X134112000Y-83439000D01*
%TO.N,Net-(J1-Pad4)*%
X132334000Y-86868000D02*
X132842000Y-86360000D01*
X132334000Y-93688000D02*
X132334000Y-86868000D01*
X129614000Y-96408000D02*
X132334000Y-93688000D01*
X132842000Y-86360000D02*
X132842000Y-85377000D01*
%TO.N,Net-(J1-Pad11)*%
X135382000Y-81534000D02*
X135382000Y-81534000D01*
X135382000Y-83058000D02*
X135382000Y-79977000D01*
%TO.N,Net-(J1-Pad3)*%
X131572000Y-86868000D02*
X131572000Y-85377000D01*
X131572000Y-91929000D02*
X131572000Y-86614000D01*
X129633000Y-93868000D02*
X131572000Y-91929000D01*
X129614000Y-93868000D02*
X129633000Y-93868000D01*
%TO.N,Net-(J1-Pad10)*%
X136652000Y-82804000D02*
X136652000Y-79977000D01*
X136906000Y-83058000D02*
X136652000Y-82804000D01*
%TO.N,Net-(J1-Pad2)*%
X130302000Y-86487000D02*
X130302000Y-85377000D01*
X130810000Y-86995000D02*
X130302000Y-86487000D01*
X130810000Y-90132000D02*
X130810000Y-86995000D01*
X129614000Y-91328000D02*
X130810000Y-90132000D01*
%TO.N,Net-(J1-Pad9)*%
X137922000Y-81407000D02*
X137922000Y-81407000D01*
X137922000Y-79977000D02*
X137922000Y-81280000D01*
%TO.N,Net-(J1-Pad1)*%
X129614000Y-87039500D02*
X129032000Y-86457500D01*
X129614000Y-88788000D02*
X129614000Y-87039500D01*
X129032000Y-86457500D02*
X129032000Y-85377000D01*
%TD*%
M02*
