M48
; DRILL file {KiCad 5.1.9+dfsg1-1+deb11u1} date Wed Feb 19 16:02:54 2025
; FORMAT={-:-/ absolute / metric / decimal}
; #@! TF.CreationDate,2025-02-19T16:02:54-08:00
; #@! TF.GenerationSoftware,Kicad,Pcbnew,5.1.9+dfsg1-1+deb11u1
FMAT,2
METRIC
T1C0.400
T2C0.800
%
G90
G05
T1
X129.032Y-81.28
X129.54Y-83.058
X131.064Y-83.058
X132.715Y-83.693
X133.858Y-83.693
X135.382Y-83.058
X136.906Y-83.058
X137.922Y-81.28
T2
X129.614Y-88.788
X129.614Y-91.328
X129.614Y-93.868
X129.614Y-96.408
X129.614Y-98.948
X129.614Y-101.488
X129.614Y-104.028
X129.614Y-106.568
X137.234Y-88.788
X137.234Y-91.328
X137.234Y-93.868
X137.234Y-96.408
X137.234Y-98.948
X137.234Y-101.488
X137.234Y-104.028
X137.234Y-106.568
T0
M30
