%TF.GenerationSoftware,KiCad,Pcbnew,5.1.9+dfsg1-1+deb11u1*%
%TF.CreationDate,2025-02-19T16:02:58-08:00*%
%TF.ProjectId,soic16,736f6963-3136-42e6-9b69-6361645f7063,rev?*%
%TF.SameCoordinates,Original*%
%TF.FileFunction,Legend,Bot*%
%TF.FilePolarity,Positive*%
%FSLAX46Y46*%
G04 Gerber Fmt 4.6, Leading zero omitted, Abs format (unit mm)*
G04 Created by KiCad (PCBNEW 5.1.9+dfsg1-1+deb11u1) date 2025-02-19 16:02:58*
%MOMM*%
%LPD*%
G01*
G04 APERTURE LIST*
%ADD10C,0.150000*%
G04 APERTURE END LIST*
D10*
X134325809Y-105424714D02*
X133849619Y-105424714D01*
X134849619Y-105758047D02*
X134325809Y-105424714D01*
X134849619Y-105091380D01*
X133849619Y-104615190D02*
X133897238Y-104710428D01*
X133944857Y-104758047D01*
X134040095Y-104805666D01*
X134325809Y-104805666D01*
X134421047Y-104758047D01*
X134468666Y-104710428D01*
X134516285Y-104615190D01*
X134516285Y-104472333D01*
X134468666Y-104377095D01*
X134421047Y-104329476D01*
X134325809Y-104281857D01*
X134040095Y-104281857D01*
X133944857Y-104329476D01*
X133897238Y-104377095D01*
X133849619Y-104472333D01*
X133849619Y-104615190D01*
X134516285Y-103424714D02*
X133849619Y-103424714D01*
X134516285Y-103853285D02*
X133992476Y-103853285D01*
X133897238Y-103805666D01*
X133849619Y-103710428D01*
X133849619Y-103567571D01*
X133897238Y-103472333D01*
X133944857Y-103424714D01*
X133849619Y-102186619D02*
X134849619Y-102186619D01*
X134230571Y-102091380D02*
X133849619Y-101805666D01*
X134516285Y-101805666D02*
X134135333Y-102186619D01*
X134516285Y-101377095D02*
X133849619Y-101377095D01*
X134421047Y-101377095D02*
X134468666Y-101329476D01*
X134516285Y-101234238D01*
X134516285Y-101091380D01*
X134468666Y-100996142D01*
X134373428Y-100948523D01*
X133849619Y-100948523D01*
X133849619Y-100329476D02*
X133897238Y-100424714D01*
X133944857Y-100472333D01*
X134040095Y-100519952D01*
X134325809Y-100519952D01*
X134421047Y-100472333D01*
X134468666Y-100424714D01*
X134516285Y-100329476D01*
X134516285Y-100186619D01*
X134468666Y-100091380D01*
X134421047Y-100043761D01*
X134325809Y-99996142D01*
X134040095Y-99996142D01*
X133944857Y-100043761D01*
X133897238Y-100091380D01*
X133849619Y-100186619D01*
X133849619Y-100329476D01*
X134516285Y-99662809D02*
X133849619Y-99472333D01*
X134325809Y-99281857D01*
X133849619Y-99091380D01*
X134516285Y-98900904D01*
X134516285Y-97900904D02*
X134516285Y-97519952D01*
X134849619Y-97758047D02*
X133992476Y-97758047D01*
X133897238Y-97710428D01*
X133849619Y-97615190D01*
X133849619Y-97519952D01*
X133849619Y-97186619D02*
X134849619Y-97186619D01*
X133849619Y-96758047D02*
X134373428Y-96758047D01*
X134468666Y-96805666D01*
X134516285Y-96900904D01*
X134516285Y-97043761D01*
X134468666Y-97139000D01*
X134421047Y-97186619D01*
X133897238Y-95900904D02*
X133849619Y-95996142D01*
X133849619Y-96186619D01*
X133897238Y-96281857D01*
X133992476Y-96329476D01*
X134373428Y-96329476D01*
X134468666Y-96281857D01*
X134516285Y-96186619D01*
X134516285Y-95996142D01*
X134468666Y-95900904D01*
X134373428Y-95853285D01*
X134278190Y-95853285D01*
X134182952Y-96329476D01*
X133849619Y-94662809D02*
X134849619Y-94662809D01*
X134468666Y-94662809D02*
X134516285Y-94567571D01*
X134516285Y-94377095D01*
X134468666Y-94281857D01*
X134421047Y-94234238D01*
X134325809Y-94186619D01*
X134040095Y-94186619D01*
X133944857Y-94234238D01*
X133897238Y-94281857D01*
X133849619Y-94377095D01*
X133849619Y-94567571D01*
X133897238Y-94662809D01*
X133897238Y-93377095D02*
X133849619Y-93472333D01*
X133849619Y-93662809D01*
X133897238Y-93758047D01*
X133992476Y-93805666D01*
X134373428Y-93805666D01*
X134468666Y-93758047D01*
X134516285Y-93662809D01*
X134516285Y-93472333D01*
X134468666Y-93377095D01*
X134373428Y-93329476D01*
X134278190Y-93329476D01*
X134182952Y-93805666D01*
X133897238Y-92948523D02*
X133849619Y-92853285D01*
X133849619Y-92662809D01*
X133897238Y-92567571D01*
X133992476Y-92519952D01*
X134040095Y-92519952D01*
X134135333Y-92567571D01*
X134182952Y-92662809D01*
X134182952Y-92805666D01*
X134230571Y-92900904D01*
X134325809Y-92948523D01*
X134373428Y-92948523D01*
X134468666Y-92900904D01*
X134516285Y-92805666D01*
X134516285Y-92662809D01*
X134468666Y-92567571D01*
X134516285Y-92234238D02*
X134516285Y-91853285D01*
X134849619Y-92091380D02*
X133992476Y-92091380D01*
X133897238Y-92043761D01*
X133849619Y-91948523D01*
X133849619Y-91853285D01*
X134516285Y-90900904D02*
X134516285Y-90519952D01*
X134849619Y-90758047D02*
X133992476Y-90758047D01*
X133897238Y-90710428D01*
X133849619Y-90615190D01*
X133849619Y-90519952D01*
X133849619Y-90186619D02*
X134849619Y-90186619D01*
X133849619Y-89758047D02*
X134373428Y-89758047D01*
X134468666Y-89805666D01*
X134516285Y-89900904D01*
X134516285Y-90043761D01*
X134468666Y-90139000D01*
X134421047Y-90186619D01*
X133849619Y-89281857D02*
X134516285Y-89281857D01*
X134849619Y-89281857D02*
X134802000Y-89329476D01*
X134754380Y-89281857D01*
X134802000Y-89234238D01*
X134849619Y-89281857D01*
X134754380Y-89281857D01*
X134516285Y-88805666D02*
X133849619Y-88805666D01*
X134421047Y-88805666D02*
X134468666Y-88758047D01*
X134516285Y-88662809D01*
X134516285Y-88519952D01*
X134468666Y-88424714D01*
X134373428Y-88377095D01*
X133849619Y-88377095D01*
X134516285Y-87472333D02*
X133706761Y-87472333D01*
X133611523Y-87519952D01*
X133563904Y-87567571D01*
X133516285Y-87662809D01*
X133516285Y-87805666D01*
X133563904Y-87900904D01*
X133897238Y-87472333D02*
X133849619Y-87567571D01*
X133849619Y-87758047D01*
X133897238Y-87853285D01*
X133944857Y-87900904D01*
X134040095Y-87948523D01*
X134325809Y-87948523D01*
X134421047Y-87900904D01*
X134468666Y-87853285D01*
X134516285Y-87758047D01*
X134516285Y-87567571D01*
X134468666Y-87472333D01*
X133897238Y-87043761D02*
X133849619Y-86948523D01*
X133849619Y-86758047D01*
X133897238Y-86662809D01*
X133992476Y-86615190D01*
X134040095Y-86615190D01*
X134135333Y-86662809D01*
X134182952Y-86758047D01*
X134182952Y-86900904D01*
X134230571Y-86996142D01*
X134325809Y-87043761D01*
X134373428Y-87043761D01*
X134468666Y-86996142D01*
X134516285Y-86900904D01*
X134516285Y-86758047D01*
X134468666Y-86662809D01*
X132199619Y-103091380D02*
X132866285Y-103091380D01*
X133199619Y-103091380D02*
X133152000Y-103139000D01*
X133104380Y-103091380D01*
X133152000Y-103043761D01*
X133199619Y-103091380D01*
X133104380Y-103091380D01*
X132866285Y-102615190D02*
X132199619Y-102615190D01*
X132771047Y-102615190D02*
X132818666Y-102567571D01*
X132866285Y-102472333D01*
X132866285Y-102329476D01*
X132818666Y-102234238D01*
X132723428Y-102186619D01*
X132199619Y-102186619D01*
X132199619Y-100805666D02*
X132247238Y-100900904D01*
X132342476Y-100948523D01*
X133199619Y-100948523D01*
X132199619Y-100424714D02*
X132866285Y-100424714D01*
X133199619Y-100424714D02*
X133152000Y-100472333D01*
X133104380Y-100424714D01*
X133152000Y-100377095D01*
X133199619Y-100424714D01*
X133104380Y-100424714D01*
X132866285Y-100091380D02*
X132866285Y-99710428D01*
X132199619Y-99948523D02*
X133056761Y-99948523D01*
X133152000Y-99900904D01*
X133199619Y-99805666D01*
X133199619Y-99710428D01*
X132247238Y-98996142D02*
X132199619Y-99091380D01*
X132199619Y-99281857D01*
X132247238Y-99377095D01*
X132342476Y-99424714D01*
X132723428Y-99424714D01*
X132818666Y-99377095D01*
X132866285Y-99281857D01*
X132866285Y-99091380D01*
X132818666Y-98996142D01*
X132723428Y-98948523D01*
X132628190Y-98948523D01*
X132532952Y-99424714D01*
X132199619Y-97329476D02*
X132723428Y-97329476D01*
X132818666Y-97377095D01*
X132866285Y-97472333D01*
X132866285Y-97662809D01*
X132818666Y-97758047D01*
X132247238Y-97329476D02*
X132199619Y-97424714D01*
X132199619Y-97662809D01*
X132247238Y-97758047D01*
X132342476Y-97805666D01*
X132437714Y-97805666D01*
X132532952Y-97758047D01*
X132580571Y-97662809D01*
X132580571Y-97424714D01*
X132628190Y-97329476D01*
X132199619Y-96853285D02*
X132866285Y-96853285D01*
X132675809Y-96853285D02*
X132771047Y-96805666D01*
X132818666Y-96758047D01*
X132866285Y-96662809D01*
X132866285Y-96567571D01*
X132247238Y-95853285D02*
X132199619Y-95948523D01*
X132199619Y-96139000D01*
X132247238Y-96234238D01*
X132342476Y-96281857D01*
X132723428Y-96281857D01*
X132818666Y-96234238D01*
X132866285Y-96139000D01*
X132866285Y-95948523D01*
X132818666Y-95853285D01*
X132723428Y-95805666D01*
X132628190Y-95805666D01*
X132532952Y-96281857D01*
X132866285Y-95377095D02*
X132199619Y-95377095D01*
X132771047Y-95377095D02*
X132818666Y-95329476D01*
X132866285Y-95234238D01*
X132866285Y-95091380D01*
X132818666Y-94996142D01*
X132723428Y-94948523D01*
X132199619Y-94948523D01*
X133199619Y-94424714D02*
X133009142Y-94519952D01*
X132866285Y-94139000D02*
X132866285Y-93758047D01*
X133199619Y-93996142D02*
X132342476Y-93996142D01*
X132247238Y-93948523D01*
X132199619Y-93853285D01*
X132199619Y-93758047D01*
X132866285Y-92805666D02*
X132866285Y-92424714D01*
X132199619Y-92662809D02*
X133056761Y-92662809D01*
X133152000Y-92615190D01*
X133199619Y-92519952D01*
X133199619Y-92424714D01*
X132199619Y-91948523D02*
X132247238Y-92043761D01*
X132294857Y-92091380D01*
X132390095Y-92139000D01*
X132675809Y-92139000D01*
X132771047Y-92091380D01*
X132818666Y-92043761D01*
X132866285Y-91948523D01*
X132866285Y-91805666D01*
X132818666Y-91710428D01*
X132771047Y-91662809D01*
X132675809Y-91615190D01*
X132390095Y-91615190D01*
X132294857Y-91662809D01*
X132247238Y-91710428D01*
X132199619Y-91805666D01*
X132199619Y-91948523D01*
X132199619Y-91186619D02*
X132866285Y-91186619D01*
X132675809Y-91186619D02*
X132771047Y-91139000D01*
X132818666Y-91091380D01*
X132866285Y-90996142D01*
X132866285Y-90900904D01*
X132866285Y-89948523D02*
X132866285Y-89567571D01*
X132199619Y-89805666D02*
X133056761Y-89805666D01*
X133152000Y-89758047D01*
X133199619Y-89662809D01*
X133199619Y-89567571D01*
X132199619Y-89234238D02*
X132866285Y-89234238D01*
X132675809Y-89234238D02*
X132771047Y-89186619D01*
X132818666Y-89139000D01*
X132866285Y-89043761D01*
X132866285Y-88948523D01*
X132247238Y-88234238D02*
X132199619Y-88329476D01*
X132199619Y-88519952D01*
X132247238Y-88615190D01*
X132342476Y-88662809D01*
X132723428Y-88662809D01*
X132818666Y-88615190D01*
X132866285Y-88519952D01*
X132866285Y-88329476D01*
X132818666Y-88234238D01*
X132723428Y-88186619D01*
X132628190Y-88186619D01*
X132532952Y-88662809D01*
X132247238Y-87377095D02*
X132199619Y-87472333D01*
X132199619Y-87662809D01*
X132247238Y-87758047D01*
X132342476Y-87805666D01*
X132723428Y-87805666D01*
X132818666Y-87758047D01*
X132866285Y-87662809D01*
X132866285Y-87472333D01*
X132818666Y-87377095D01*
X132723428Y-87329476D01*
X132628190Y-87329476D01*
X132532952Y-87805666D01*
X132294857Y-86900904D02*
X132247238Y-86853285D01*
X132199619Y-86900904D01*
X132247238Y-86948523D01*
X132294857Y-86900904D01*
X132199619Y-86900904D01*
M02*
