%TF.GenerationSoftware,KiCad,Pcbnew,5.1.9+dfsg1-1+deb11u1*%
%TF.CreationDate,2025-02-19T16:02:58-08:00*%
%TF.ProjectId,soic16,736f6963-3136-42e6-9b69-6361645f7063,rev?*%
%TF.SameCoordinates,Original*%
%TF.FileFunction,Legend,Top*%
%TF.FilePolarity,Positive*%
%FSLAX46Y46*%
G04 Gerber Fmt 4.6, Leading zero omitted, Abs format (unit mm)*
G04 Created by KiCad (PCBNEW 5.1.9+dfsg1-1+deb11u1) date 2025-02-19 16:02:58*
%MOMM*%
%LPD*%
G01*
G04 APERTURE LIST*
%ADD10C,0.150000*%
%ADD11C,0.120000*%
G04 APERTURE END LIST*
D10*
X134373428Y-93615238D02*
X134325809Y-93758095D01*
X134278190Y-93805714D01*
X134182952Y-93853333D01*
X134040095Y-93853333D01*
X133944857Y-93805714D01*
X133897238Y-93758095D01*
X133849619Y-93662857D01*
X133849619Y-93281904D01*
X134849619Y-93281904D01*
X134849619Y-93615238D01*
X134802000Y-93710476D01*
X134754380Y-93758095D01*
X134659142Y-93805714D01*
X134563904Y-93805714D01*
X134468666Y-93758095D01*
X134421047Y-93710476D01*
X134373428Y-93615238D01*
X134373428Y-93281904D01*
X134373428Y-94281904D02*
X134373428Y-94615238D01*
X133849619Y-94758095D02*
X133849619Y-94281904D01*
X134849619Y-94281904D01*
X134849619Y-94758095D01*
X133897238Y-95139047D02*
X133849619Y-95281904D01*
X133849619Y-95520000D01*
X133897238Y-95615238D01*
X133944857Y-95662857D01*
X134040095Y-95710476D01*
X134135333Y-95710476D01*
X134230571Y-95662857D01*
X134278190Y-95615238D01*
X134325809Y-95520000D01*
X134373428Y-95329523D01*
X134421047Y-95234285D01*
X134468666Y-95186666D01*
X134563904Y-95139047D01*
X134659142Y-95139047D01*
X134754380Y-95186666D01*
X134802000Y-95234285D01*
X134849619Y-95329523D01*
X134849619Y-95567619D01*
X134802000Y-95710476D01*
X134849619Y-95996190D02*
X134849619Y-96567619D01*
X133849619Y-96281904D02*
X134849619Y-96281904D01*
X134849619Y-96758095D02*
X134849619Y-97329523D01*
X133849619Y-97043809D02*
X134849619Y-97043809D01*
X133849619Y-97662857D02*
X134849619Y-97662857D01*
X134373428Y-97662857D02*
X134373428Y-98234285D01*
X133849619Y-98234285D02*
X134849619Y-98234285D01*
X133849619Y-98710476D02*
X134849619Y-98710476D01*
X133849619Y-99186666D02*
X134849619Y-99186666D01*
X133849619Y-99758095D01*
X134849619Y-99758095D01*
X132247238Y-93639047D02*
X132199619Y-93781904D01*
X132199619Y-94020000D01*
X132247238Y-94115238D01*
X132294857Y-94162857D01*
X132390095Y-94210476D01*
X132485333Y-94210476D01*
X132580571Y-94162857D01*
X132628190Y-94115238D01*
X132675809Y-94020000D01*
X132723428Y-93829523D01*
X132771047Y-93734285D01*
X132818666Y-93686666D01*
X132913904Y-93639047D01*
X133009142Y-93639047D01*
X133104380Y-93686666D01*
X133152000Y-93734285D01*
X133199619Y-93829523D01*
X133199619Y-94067619D01*
X133152000Y-94210476D01*
X133199619Y-94829523D02*
X133199619Y-95020000D01*
X133152000Y-95115238D01*
X133056761Y-95210476D01*
X132866285Y-95258095D01*
X132532952Y-95258095D01*
X132342476Y-95210476D01*
X132247238Y-95115238D01*
X132199619Y-95020000D01*
X132199619Y-94829523D01*
X132247238Y-94734285D01*
X132342476Y-94639047D01*
X132532952Y-94591428D01*
X132866285Y-94591428D01*
X133056761Y-94639047D01*
X133152000Y-94734285D01*
X133199619Y-94829523D01*
X132199619Y-95686666D02*
X133199619Y-95686666D01*
X132294857Y-96734285D02*
X132247238Y-96686666D01*
X132199619Y-96543809D01*
X132199619Y-96448571D01*
X132247238Y-96305714D01*
X132342476Y-96210476D01*
X132437714Y-96162857D01*
X132628190Y-96115238D01*
X132771047Y-96115238D01*
X132961523Y-96162857D01*
X133056761Y-96210476D01*
X133152000Y-96305714D01*
X133199619Y-96448571D01*
X133199619Y-96543809D01*
X133152000Y-96686666D01*
X133104380Y-96734285D01*
X132199619Y-98448571D02*
X132199619Y-97877142D01*
X132199619Y-98162857D02*
X133199619Y-98162857D01*
X133056761Y-98067619D01*
X132961523Y-97972380D01*
X132913904Y-97877142D01*
X133199619Y-99305714D02*
X133199619Y-99115238D01*
X133152000Y-99020000D01*
X133104380Y-98972380D01*
X132961523Y-98877142D01*
X132771047Y-98829523D01*
X132390095Y-98829523D01*
X132294857Y-98877142D01*
X132247238Y-98924761D01*
X132199619Y-99020000D01*
X132199619Y-99210476D01*
X132247238Y-99305714D01*
X132294857Y-99353333D01*
X132390095Y-99400952D01*
X132628190Y-99400952D01*
X132723428Y-99353333D01*
X132771047Y-99305714D01*
X132818666Y-99210476D01*
X132818666Y-99020000D01*
X132771047Y-98924761D01*
X132723428Y-98877142D01*
X132628190Y-98829523D01*
X128960571Y-84272380D02*
X128865333Y-84224761D01*
X128817714Y-84177142D01*
X128770095Y-84081904D01*
X128770095Y-83796190D01*
X128817714Y-83700952D01*
X128865333Y-83653333D01*
X128960571Y-83605714D01*
X129103428Y-83605714D01*
X129198666Y-83653333D01*
X129246285Y-83700952D01*
X129293904Y-83796190D01*
X129293904Y-84081904D01*
X129246285Y-84177142D01*
X129198666Y-84224761D01*
X129103428Y-84272380D01*
X128960571Y-84272380D01*
D11*
%TO.C,J1*%
X134424000Y-87458000D02*
G75*
G02*
X132424000Y-87458000I-1000000J0D01*
G01*
X132424000Y-87458000D02*
X130774000Y-87458000D01*
X130774000Y-87458000D02*
X130774000Y-107898000D01*
X130774000Y-107898000D02*
X136074000Y-107898000D01*
X136074000Y-107898000D02*
X136074000Y-87458000D01*
X136074000Y-87458000D02*
X134424000Y-87458000D01*
D10*
%TO.C,J2*%
X128402000Y-84785000D02*
X128427000Y-84785000D01*
X128402000Y-80635000D02*
X128507000Y-80635000D01*
X138552000Y-80635000D02*
X138447000Y-80635000D01*
X138552000Y-84785000D02*
X138447000Y-84785000D01*
X128402000Y-84785000D02*
X128402000Y-80635000D01*
X138552000Y-84785000D02*
X138552000Y-80635000D01*
X128427000Y-84785000D02*
X128427000Y-86160000D01*
D11*
%TO.C,C1*%
X133206748Y-105843000D02*
X133729252Y-105843000D01*
X133206748Y-107263000D02*
X133729252Y-107263000D01*
%TD*%
M02*
